<svg xmlns="http://www.w3.org/2000/svg" viewBox="0 0 226 30"><g fill="#14568D"><path d="M156.8 3.6c-.5-.6-1-.9-1.7-.9-.3 0-.6.1-.8.2-.3.1-.5.3-.7.5-.2.2-.3.4-.4.7-.1.3-.2.5-.2.9 0 .3.1.6.2.9.1.3.3.5.4.7.2.2.4.3.7.5.3.1.5.2.8.2.6 0 1.2-.3 1.7-.8v2.4l-.2.1c-.3.1-.6.2-.9.2-.2-.2-.5-.2-.7-.2-.5 0-1.1-.1-1.5-.3-.5-.2-.9-.5-1.3-.9s-.7-.8-.9-1.3-.3-1.1-.3-1.7c0-.6.1-1.2.3-1.7.2-.5.5-.9.9-1.3s.8-.6 1.3-.9 1-.3 1.6-.3c.3 0 .6 0 .9.1l.9.3-.1 2.6zM161 4h2.9V1h2v7.8h-2V5.5H161v3.2h-2V.9h2V4zM172.3 5.9l-.9-2.6-.9 2.6h1.8zm.6 1.5H170l-.5 1.4h-2.2l3-7.8h2.2l3 7.8h-2.2l-.4-1.4zM176.6 8.8l1.3-7.8h2l1.6 4.2 1.6-4.2h2l1.3 7.8h-2l-.7-4.5-1.8 4.5h-.9l-1.7-4.5-.7 4.5h-2zM190.1 4.5h.7c.7 0 1.1-.3 1.1-1s-.4-1-1.1-1h-.7v2zm0 4.3h-2V.9h3.2c.9 0 1.5.2 2 .7s.7 1.1.7 1.9c0 .8-.2 1.5-.7 1.9s-1.1.7-2 .7h-1.2v2.7zM195.6 8.8h2V.9h-2v7.9zM201.6 4.8c0 .3.1.6.2.9.1.3.3.5.5.7.2.2.4.3.7.5.3.1.5.2.8.2.3 0 .6-.1.8-.2.3-.1.5-.3.7-.5.2-.2.4-.4.5-.7.1-.3.2-.6.2-.9s-.1-.6-.2-.9c-.1-.3-.3-.5-.5-.7-.2-.2-.4-.3-.7-.5-.3-.1-.5-.2-.8-.2-.3 0-.6.1-.8.2-.3.1-.5.3-.7.5-.2.2-.4.4-.5.7-.2.4-.2.6-.2.9m-2.1 0c0-.6.1-1.1.3-1.6.2-.5.5-.9.9-1.3s.8-.7 1.4-.9c.5-.2 1.1-.3 1.7-.3.6 0 1.2.1 1.7.3.5.2 1 .5 1.4.9s.7.8.9 1.3c.2.5.3 1 .3 1.6 0 .6-.1 1.1-.3 1.6-.2.5-.5.9-.9 1.3s-.8.7-1.4.9c-.5.3-1.1.4-1.7.4-.6 0-1.2-.1-1.7-.3-.5-.2-1-.5-1.4-.9-.4-.4-.7-.8-.9-1.3-.2-.5-.3-1.1-.3-1.7M209.9 8.8V.9h2l3.7 4.8V.9h2v7.8h-2L211.9 4v4.8h-2zM224.1 2.9c-.2-.2-.4-.3-.7-.4-.2-.1-.4-.1-.6-.1-.3 0-.5.1-.6.2-.2.1-.2.3-.2.5 0 .1 0 .3.1.3.1.1.2.2.3.2.1.1.3.1.5.2.2 0 .3.1.5.2.7.2 1.1.5 1.5.9s.5.9.5 1.4c0 .4-.1.8-.2 1.1-.1.3-.3.6-.6.8-.3.2-.6.4-1 .5-.4.1-.8.2-1.3.2-1 0-1.9-.3-2.7-.9l.9-1.6c.3.3.6.5.9.6s.6.2.9.2c.3 0 .6-.1.7-.2.2-.2.2-.3.2-.5 0-.1 0-.2-.1-.3 0-.1-.1-.2-.2-.2-.1-.1-.2-.1-.4-.2s-.3-.1-.6-.2-.5-.2-.8-.3c-.3-.1-.5-.2-.7-.4-.2-.2-.4-.4-.5-.6-.1-.3-.2-.6-.2-1s.1-.7.2-1.1c.1-.3.3-.6.5-.8.2-.2.5-.4.8-.5.3-.1.7-.2 1.1-.2.4 0 .8.1 1.2.2.4.1.8.3 1.2.5l-.6 1.5zM155.7 12.4h-2.4v1.3h2.2v1.7h-2.2v3.1h-2v-7.8h4.5v1.7zM159.2 14.6c0 .3.1.6.2.9.1.3.3.5.5.7.2.2.4.3.7.5.3.1.5.2.8.2.3 0 .6-.1.8-.2.3-.1.5-.3.7-.5.2-.2.4-.4.5-.7.1-.3.2-.6.2-.9s-.1-.6-.2-.9c-.1-.3-.3-.5-.5-.7-.2-.2-.4-.3-.7-.5-.3-.1-.5-.2-.8-.2-.3 0-.6.1-.8.2-.3.1-.5.3-.7.5-.2.2-.4.4-.5.7-.2.3-.2.6-.2.9m-2.1 0c0-.6.1-1.1.3-1.6.2-.5.5-.9.9-1.3s.8-.7 1.4-.9c.5-.2 1.1-.3 1.7-.3.6 0 1.2.1 1.7.3.5.2 1 .5 1.4.9s.7.8.9 1.3c.2.5.3 1 .3 1.6 0 .6-.1 1.1-.3 1.6-.2.5-.5.9-.9 1.3s-.8.7-1.4.9c-.5.2-1.1.3-1.7.3-.6 0-1.2-.1-1.7-.3-.5-.2-1-.5-1.4-.9-.4-.4-.7-.8-.9-1.3-.2-.5-.3-1.1-.3-1.6M169.5 14.2h.4c.4 0 .7-.1.9-.2.2-.2.3-.4.3-.7s-.1-.6-.3-.7c-.2-.2-.5-.2-.9-.2h-.4v1.8zm4.5 4.3h-2.5l-1.9-3v3h-2v-7.8h3.2c.4 0 .8.1 1.1.2s.6.3.8.5c.2.2.4.5.5.8.1.3.2.6.2.9 0 .6-.1 1.1-.4 1.4-.3.4-.7.6-1.3.8l2.3 3.2zM153.3 26.6h.4c.5 0 .9-.1 1.1-.2.2-.1.3-.3.3-.6s-.1-.5-.3-.6c-.2-.1-.6-.2-1.1-.2h-.4v1.6zm0-3.2h.4c.6 0 1-.3 1-.8s-.3-.8-1-.8h-.4v1.6zm-2.1-3h3c.7 0 1.3.2 1.6.5.4.3.6.8.6 1.5 0 .4-.1.7-.2 1-.1.3-.4.5-.6.7.3.1.5.1.7.3.2.1.4.3.5.4l.3.6c.1.2.1.4.1.7 0 .4-.1.7-.2 1-.1.3-.3.5-.5.7-.2.2-.5.3-.8.4-.3.1-.7.1-1.1.1h-3.3l-.1-7.9zM163.3 22.1h-2.4v1.3h2.3v1.7h-2.3v1.4h2.4v1.7h-4.4v-7.8h4.4v1.7zM168.3 22.1v6.1h-2v-6.1h-1.7v-1.7h5.4v1.7h-1.7zM174.3 22.1v6.1h-2v-6.1h-1.7v-1.7h5.4v1.7h-1.7zM181.8 22.1h-2.4v1.3h2.3v1.7h-2.3v1.4h2.4v1.7h-4.4v-7.8h4.4v1.7zM185.8 23.9h.4c.4 0 .7-.1.9-.2.2-.2.3-.4.3-.7s-.1-.6-.3-.7c-.2-.2-.5-.2-.9-.2h-.4v1.8zm4.5 4.3h-2.5l-1.9-3v3h-2v-7.8h3.2c.4 0 .8.1 1.1.2s.6.3.8.5c.2.2.4.5.5.8.1.3.2.6.2.9 0 .6-.1 1.1-.4 1.4-.3.4-.7.6-1.3.8l2.3 3.2zM191.1 20.6l-.2.1c0-.1-.1-.1-.1-.1h-.2l-.1.1c0 .1 0 .1.1.2l.1.1c.1 0 .2.1.2.2s.1.1.1.2 0 .2-.1.3c-.1.1-.2.1-.3.1-.1 0-.2 0-.3-.1-.1-.1-.1-.2-.1-.3h.2v.2c0 .1.1.1.2.1s.1 0 .2-.1c0 0 .1-.1.1-.2v-.1-.1l-.1-.1c-.1-.1-.1 0-.1 0l-.1-.1c-.2-.1-.3-.2-.3-.3 0-.1 0-.2.1-.3.1-.1.2-.1.3-.1.2.1.3.2.4.3M191.4 21.7l.3-1.4.5 1 .5-1 .3 1.4h-.2l-.1-.8-.4.9-.4-.9-.1.8h-.4zM33.7 18.6v-7.9h4.4l-.2 1.1H35V14h2.4v1H35v2.5h3.1v1.1h-4.4zM44.5 18.6l-1.6-3.1-1.6 3.1h-1.6l2.4-4.2-2.1-3.7h1.6l1.3 2.4 1.2-2.4h1.5l-2 3.6 2.4 4.3h-1.5zM51.4 12.1c-.2-.3-.6-.4-1.1-.4h-1v2.8h1c1 0 1.4-.5 1.4-1.4 0-.4-.1-.8-.3-1m-.8 3.4h-1.3v3H48v-7.9h2.1c1.1 0 1.6.1 2 .4.7.4 1.1 1.1 1.1 2 0 1.6-1.2 2.5-2.6 2.5M57.1 11.7h-.7v2.5h.7c.7 0 1-.1 1.3-.3.2-.2.4-.5.4-1-.1-.8-.5-1.2-1.7-1.2zm1.9 6.9l-.7-1.2c-.5-1-.9-1.5-1.3-2-.1-.1-.3-.2-.5-.2v3.4h-1.3v-7.9h2.4c1.8 0 2.6 1 2.6 2.3 0 1.1-.7 2.2-2 2.2.3.1.8.9 1.2 1.6l1.2 1.9H59zM62.5 18.6v-7.9h4.4l-.2 1.1h-2.9V14h2.4v1h-2.4v2.5H67v1.1h-4.5zM71.4 18.7c-.9 0-1.8-.2-2.6-.7l.5-1c.7.4 1.3.7 2.1.7 1 0 1.5-.5 1.5-1.3 0-.6-.4-.9-1.2-1.2L71 15c-.7-.2-1.2-.5-1.5-.9-.2-.3-.3-.7-.3-1.2 0-1.4 1.1-2.3 2.7-2.3.9 0 1.8.3 2.5.8l-.6.9c-.7-.4-1.2-.6-1.9-.6-.8 0-1.3.4-1.3 1.1 0 .5.3.7 1 1l.9.3c1.1.3 1.9 1.1 1.9 2.2 0 1.2-1 2.4-3 2.4M78.9 18.7c-.9 0-1.8-.2-2.6-.7l.5-1c.7.4 1.3.7 2.1.7 1 0 1.5-.5 1.5-1.3 0-.6-.4-.9-1.2-1.2l-.7-.2c-.7-.2-1.2-.5-1.5-.9-.2-.3-.3-.7-.3-1.2 0-1.4 1.1-2.3 2.7-2.3.9 0 1.8.3 2.5.8l-.6.9c-.7-.4-1.2-.6-1.9-.6-.8 0-1.3.4-1.3 1.1 0 .5.3.7 1 1l.9.3c1.1.3 1.9 1.1 1.9 2.2.1 1.2-1 2.4-3 2.4M90.4 18.7c-.9 0-1.8-.2-2.6-.7l.5-1c.7.4 1.3.7 2.1.7 1 0 1.5-.5 1.5-1.3 0-.6-.4-.9-1.2-1.2l-.8-.2c-.7-.2-1.2-.5-1.5-.9-.2-.3-.3-.7-.3-1.2 0-1.4 1.1-2.3 2.7-2.3.9 0 1.8.3 2.5.8l-.6.9c-.7-.4-1.2-.6-1.9-.6-.8 0-1.3.4-1.3 1.1 0 .5.3.7 1 1l.9.3c1.1.3 1.9 1.1 1.9 2.2.1 1.2-.9 2.4-2.9 2.4M98.5 18.7c-1 0-1.9-.4-2.5-1.1-.6-.7-.9-1.7-.9-2.8 0-.9.2-1.7.5-2.4.6-1.1 1.7-1.8 2.9-1.8.8 0 1.5.2 2 .6l-.6.8c-.4-.3-.9-.4-1.3-.4-.7 0-1.2.3-1.6.9-.3.5-.4 1.1-.4 2.1s.1 1.5.3 2c.3.8 1 1.1 1.7 1.1.6 0 1-.1 1.4-.5l.6.8c-.5.5-1.2.7-2.1.7M104.6 11.7h-.7v2.5h.7c.7 0 1-.1 1.3-.3.2-.2.4-.5.4-1-.1-.8-.6-1.2-1.7-1.2zm1.8 6.9l-.7-1.2c-.5-1-.9-1.5-1.3-2-.1-.1-.3-.2-.5-.2v3.4h-1.3v-7.9h2.4c1.8 0 2.6 1 2.6 2.3 0 1.1-.7 2.2-2 2.2.3.1.8.9 1.2 1.6l1.2 1.9h-1.6zM110 18.6h1.3v-7.9H110v7.9zM117.2 12.1c-.2-.3-.6-.4-1.1-.4h-1v2.8h1c1 0 1.4-.5 1.4-1.4 0-.4-.1-.8-.3-1m-.8 3.4h-1.3v3h-1.3v-7.9h2.1c1.1 0 1.6.1 2 .4.7.4 1.1 1.1 1.1 2-.1 1.6-1.2 2.5-2.6 2.5M125.5 11.8h-2v6.8h-1.3v-6.8h-2v-1.1h5.4l-.1 1.1zM129.5 18.7c-.9 0-1.8-.2-2.6-.7l.5-1c.7.4 1.3.7 2.1.7 1 0 1.5-.5 1.5-1.3 0-.6-.4-.9-1.2-1.2l-.8-.2c-.7-.2-1.2-.5-1.5-.9-.2-.3-.3-.7-.3-1.2 0-1.4 1.1-2.3 2.7-2.3.9 0 1.8.3 2.5.8l-.6.9c-.7-.4-1.2-.6-1.9-.6-.8 0-1.3.4-1.3 1.1 0 .5.3.7 1 1l.9.3c1.1.3 1.9 1.1 1.9 2.2.2 1.2-.9 2.4-2.9 2.4M135.5 11.6H135.2v.4H135.5l.1-.1c0-.2 0-.3-.1-.3zm.2 1.2c-.1-.1-.1-.1-.1-.2-.1-.2-.2-.3-.2-.3v.6h-.4v-1.4h.5c.2 0 .4.2.4.4s-.1.4-.3.4l.1.1c.1.1.3.5.3.5h-.3zm-.3-1.7c-.5 0-.9.4-.9 1s.4 1 .9 1 .9-.4.9-1-.4-1-.9-1zm0 2.2c-.7 0-1.2-.5-1.2-1.2s.6-1.2 1.2-1.2 1.2.5 1.2 1.2-.5 1.2-1.2 1.2zM.7 15.3c0 3 1 5.7 2.5 7.9 1.2-.2 1.6-.4 2-1.1l1.9-4 1.6-3.5h-8v.7zM9.1 14l2.3-5c-.2.1-.3 0-.4 0l.1-.7c.2 0 .4.1.5.1.8-2 0-2.3-1.4-2.4l.2-.5H4.9C2.6 7.7 1.1 10.7.8 14h8.3zm-.2-5.9h.7v.7H7.9l-.1-.7h1.1zm-2.6.3l.2.7c-.5.1-1 .3-1.6.5l-.3-.7c.6-.2 1.1-.4 1.7-.5zm-2.7 1.8c-.5.3-.9.6-1.3.9l-.4-.5c.5-.4.9-.7 1.4-1l.3.6zM17.2 4.9h5.6C21.5 3.8 20 3 18.3 2.4l-1.1 2.5zM23.5 6.8c-.4-.5-1.3-.8-3.5-.8h-2.7c-.4 0-.7 0-1 .5l-1.5 3.3c.2.2.5.3.7.5l-.4.5c-.2-.1-.4-.3-.6-.4L13 13.5h3c3 0 3.4-.2 4.7-2.1h1l-1 2.6h7c-.2-2.4-1.1-4.6-2.4-6.5-.2.6-.4 1.1-.5 1.6l-1.1.1c.3-1.1.1-1.9-.2-2.4zm-6.1 6.3c-.3-.4-.7-.9-1.1-1.2l.5-.5c.4.4.8.8 1.1 1.3l-.5.4zM14.1 4.9h2.4l1.2-2.7c-.7-.2-1.4-.3-2.2-.4l-1.4 3.1zM5.6 4.9h7.8l1.4-3.1h-.6C11 1.7 8 2.9 5.6 4.9zM14.8 28.9c3.7-.1 7.1-1.8 9.5-4.4H19c-.2.3-.3.6-.5.9l-.7-.4c.1-.2.2-.4.3-.5h-10L7 26.9c1.9 1.2 4.1 1.9 6.4 2.1.4-.2.7-.3 1-.5l.4.4zm2.2-2.7l.5.4c-.4.4-.8.9-1.2 1.3l-.4-.5c.4-.4.8-.7 1.1-1.2zM7.4 24.5H4.9l-.2.5c.5.5 1.1 1 1.8 1.5l.9-2zM27.8 15.3v-.6h-7.4l-1 2.2h-1c.3-1.6.2-2.1-1.5-2.2h-4.3l-3.1 6.7c-.3.7-.4 1.2-.1 1.3.6.3 1.6.4 3.3.4 2.3 0 3.8-.3 4.9-1 .9-.6 2-1.5 3.1-2.7l.9.1c-.4.6-2.3 3.2-3.1 4.2h6.2c2-2.2 3.1-5.2 3.1-8.4zm-8.4 4.1c0-.5-.1-1.1-.2-1.6l.7-.1c.1.6.2 1.2.2 1.7h-.7z"/></g></svg>